<?xml version="1.0" encoding="UTF-8" standalone="no"?><!DOCTYPE svg PUBLIC "-//W3C//DTD SVG 1.1//EN" "http://www.w3.org/Graphics/SVG/1.1/DTD/svg11.dtd"><svg width="100%" height="100%" viewBox="0 0 8 8" version="1.1" xmlns="http://www.w3.org/2000/svg" xmlns:xlink="http://www.w3.org/1999/xlink" xml:space="preserve" xmlns:serif="http://www.serif.com/" style="fill-rule:evenodd;clip-rule:evenodd;stroke-linejoin:round;"><g id="layer1"><circle cx="4" cy="4" r="4" style="fill:#9eb1b8;"/><path d="M4,0c2.208,0 4,1.792 4,4c0,2.208 -1.792,4 -4,4c-2.208,0 -4,-1.792 -4,-4c0,-2.208 1.792,-4 4,-4Zm0,0.162c2.118,0 3.838,1.72 3.838,3.838c-0,2.118 -1.72,3.838 -3.838,3.838c-2.118,-0 -3.838,-1.72 -3.838,-3.838c0,-2.118 1.72,-3.838 3.838,-3.838Z" style="fill:#9eb1b8;"/><g><g id="g12837"><path id="circle895" d="M4,0.312l-0.367,1.743c-0.026,0.006 -0.052,0.011 -0.078,0.017c-0.014,-0.502 -0.928,-0.74 -0.967,-1.479c-0.304,0.649 0.531,1.194 0.351,1.732c-0.019,0.013 -0.038,0.026 -0.056,0.04l-1.491,-0.972l0.972,1.49c-0.015,0.022 -0.03,0.044 -0.044,0.066c-0.367,-0.341 -1.179,0.134 -1.728,-0.36c0.245,0.676 1.227,0.467 1.476,0.983c-0.005,0.02 -0.009,0.041 -0.013,0.061l-1.744,0.367l1.744,0.367c0.005,0.026 0.011,0.052 0.017,0.077c-0.503,0.015 -0.741,0.928 -1.48,0.967c0.649,0.304 1.194,-0.53 1.733,-0.351c0.013,0.019 0.026,0.038 0.039,0.057l-0.972,1.49l1.491,-0.972c0.022,0.015 0.043,0.03 0.066,0.045c-0.341,0.366 0.134,1.178 -0.361,1.727c0.677,-0.245 0.468,-1.227 0.983,-1.476c0.021,0.005 0.042,0.009 0.062,0.013l0.367,1.744l0.367,-1.744c0.026,-0.005 0.052,-0.01 0.078,-0.016c0.014,0.502 0.928,0.74 0.967,1.479c0.304,-0.649 -0.531,-1.194 -0.351,-1.732c0.019,-0.013 0.038,-0.027 0.056,-0.04l1.491,0.972l-0.972,-1.49c0.015,-0.022 0.03,-0.044 0.044,-0.066c0.367,0.341 1.179,-0.134 1.728,0.36c-0.245,-0.676 -1.227,-0.467 -1.476,-0.983c0.005,-0.02 0.009,-0.041 0.013,-0.061l1.744,-0.367l-1.74,-0.366c-0.005,-0.026 -0.01,-0.053 -0.016,-0.079c0.5,-0.019 0.738,-0.927 1.475,-0.966c-0.649,-0.304 -1.193,0.53 -1.732,0.351c-0.013,-0.02 -0.026,-0.04 -0.039,-0.059l0.971,-1.488l-1.488,0.97c-0.023,-0.015 -0.045,-0.029 -0.068,-0.044c0.34,-0.367 -0.134,-1.177 0.36,-1.726c-0.674,0.244 -0.469,1.219 -0.977,1.473c-0.023,-0.005 -0.046,-0.01 -0.069,-0.015l-0.366,-1.739Z" style="fill:#edbd58;stroke:#080818;stroke-width:0.14px;"/></g><g><path d="M3.787,4.359c0.05,0.013 0.125,0.063 0.151,0.119c0.029,0.061 -0.068,0.119 -0.151,0.119c-0.084,-0 -0.152,-0.054 -0.152,-0.119c0,-0.066 0.072,-0.14 0.152,-0.119Z" style="fill:#080818;"/><path d="M3.787,4.359c0.05,0.013 0.125,0.063 0.151,0.119c0.029,0.061 -0.068,0.119 -0.151,0.119c-0.084,-0 -0.152,-0.054 -0.152,-0.119c0,-0.066 0.072,-0.14 0.152,-0.119Zm0.008,0.1c-0.008,0.017 -0.015,0.037 -0.014,0.051l0.001,0.002c0.002,-0.001 0.004,-0.002 0.005,-0.003c0.009,-0.008 0.011,-0.021 0.011,-0.031c-0,-0.007 -0.001,-0.013 -0.003,-0.019Z" style="fill:#080818;"/><path d="M4.213,4.359c-0.05,0.013 -0.125,0.063 -0.151,0.119c-0.029,0.061 0.068,0.119 0.151,0.119c0.084,-0 0.152,-0.054 0.152,-0.119c-0,-0.066 -0.072,-0.14 -0.152,-0.119Z" style="fill:#080818;"/><path d="M4.213,4.359c-0.05,0.013 -0.125,0.063 -0.151,0.119c-0.029,0.061 0.068,0.119 0.151,0.119c0.084,-0 0.152,-0.054 0.152,-0.119c-0,-0.066 -0.072,-0.14 -0.152,-0.119Zm-0.006,0.094c-0.003,0.008 -0.005,0.016 -0.005,0.025c0,0.01 0.002,0.023 0.011,0.031c0.001,0.001 0.003,0.002 0.006,0.004c0.001,-0.015 -0,-0.029 -0.004,-0.042c-0.001,-0.005 -0.004,-0.011 -0.008,-0.018Z" style="fill:#080818;"/></g><path d="M3.621,4.985c0.017,-0.084 0.074,-0.182 0.231,-0.211c0.029,-0.005 0.133,0.051 0.164,0.051c0.032,-0 0.111,-0.056 0.141,-0.051c0.158,0.029 0.22,0.127 0.242,0.211c0.079,0.021 0.199,-0.023 0.199,0.025c0,0.109 -0.301,0.334 -0.582,0.334c-0.281,0 -0.614,-0.225 -0.614,-0.334c-0,-0.05 0.126,-0.004 0.219,-0.025Z" style="fill:#080818;"/><path d="M3.621,4.985c0.017,-0.084 0.074,-0.182 0.231,-0.211c0.029,-0.005 0.133,0.051 0.164,0.051c0.032,-0 0.111,-0.056 0.141,-0.051c0.158,0.029 0.22,0.127 0.242,0.211c0.079,0.021 0.199,-0.023 0.199,0.025c0,0.109 -0.301,0.334 -0.582,0.334c-0.281,0 -0.614,-0.225 -0.614,-0.334c-0,-0.05 0.126,-0.004 0.219,-0.025Zm0.232,-0.044c0.022,0.009 0.057,0.022 0.077,0.029c0.036,0.013 0.067,0.017 0.086,0.017c0.023,0 0.056,-0.005 0.092,-0.02c0.013,-0.006 0.036,-0.016 0.053,-0.024c0.048,0.017 0.072,0.05 0.08,0.081l0.067,0.068c-0.084,0.05 -0.189,0.09 -0.292,0.09c-0.104,0 -0.217,-0.041 -0.308,-0.091l0.071,-0.073c0.007,-0.03 0.028,-0.061 0.074,-0.077Z" style="fill:#080818;"/><g><path d="M3.115,3.727c-0.263,-0.055 -0.542,-0.15 -0.542,-0.15c0,0 0.508,-0.16 0.789,-0.16c0.101,0 0.402,0.191 0.467,0.264c0.048,0.054 -0.085,0.074 -0.216,0.082c-0.001,0.131 -0.113,0.237 -0.251,0.237c-0.138,-0 -0.25,-0.107 -0.25,-0.238c0,-0.012 0.001,-0.023 0.003,-0.035Z" style="fill:#080818;"/><path d="M3.115,3.727c-0.263,-0.055 -0.542,-0.15 -0.542,-0.15c0,0 0.508,-0.16 0.789,-0.16c0.101,0 0.402,0.191 0.467,0.264c0.048,0.054 -0.085,0.074 -0.216,0.082c-0.001,0.131 -0.113,0.237 -0.251,0.237c-0.138,-0 -0.25,-0.107 -0.25,-0.238c0,-0.012 0.001,-0.023 0.003,-0.035Zm0.241,-0.147c-0.055,0 -0.12,0.007 -0.187,0.018l0.106,0.154c-0,0.003 -0,0.007 -0,0.01c-0,0.044 0.041,0.076 0.087,0.076c0.047,-0 0.088,-0.032 0.088,-0.076l0.089,-0.093c-0.022,-0.013 -0.043,-0.026 -0.065,-0.037c-0.043,-0.024 -0.108,-0.049 -0.118,-0.052Z" style="fill:#080818;"/><path d="M4.885,3.727c0.263,-0.055 0.542,-0.15 0.542,-0.15c-0,0 -0.508,-0.16 -0.789,-0.16c-0.101,0 -0.402,0.191 -0.467,0.264c-0.048,0.054 0.085,0.074 0.216,0.082c0.001,0.131 0.113,0.237 0.251,0.237c0.138,-0 0.25,-0.107 0.25,-0.238c-0,-0.012 -0.001,-0.023 -0.003,-0.035Z" style="fill:#080818;"/><path d="M4.885,3.727c0.263,-0.055 0.542,-0.15 0.542,-0.15c-0,0 -0.508,-0.16 -0.789,-0.16c-0.101,0 -0.402,0.191 -0.467,0.264c-0.048,0.054 0.085,0.074 0.216,0.082c0.001,0.131 0.113,0.237 0.251,0.237c0.138,-0 0.25,-0.107 0.25,-0.238c-0,-0.012 -0.001,-0.023 -0.003,-0.035Zm-0.241,-0.147c-0.01,0.003 -0.075,0.028 -0.118,0.052c-0.022,0.011 -0.043,0.024 -0.065,0.037l0.089,0.093c-0,0.044 0.041,0.076 0.088,0.076c0.046,-0 0.087,-0.032 0.087,-0.076c0,-0.003 0,-0.007 -0,-0.01l0.106,-0.154c-0.067,-0.011 -0.132,-0.018 -0.187,-0.018Z" style="fill:#080818;"/></g></g></g></svg>