<?xml version="1.0" encoding="UTF-8" standalone="no"?><!DOCTYPE svg PUBLIC "-//W3C//DTD SVG 1.1//EN" "http://www.w3.org/Graphics/SVG/1.1/DTD/svg11.dtd"><svg width="100%" height="100%" viewBox="0 0 8 8" version="1.1" xmlns="http://www.w3.org/2000/svg" xmlns:xlink="http://www.w3.org/1999/xlink" xml:space="preserve" xmlns:serif="http://www.serif.com/" style="fill-rule:evenodd;clip-rule:evenodd;stroke-linejoin:round;"><g id="layer1"><circle cx="4" cy="4" r="4" style="fill:#5d667e;"/><path d="M4,0c2.208,0 4,1.792 4,4c0,2.208 -1.792,4 -4,4c-2.208,0 -4,-1.792 -4,-4c0,-2.208 1.792,-4 4,-4Zm0,0.162c2.118,0 3.838,1.72 3.838,3.838c-0,2.118 -1.72,3.838 -3.838,3.838c-2.118,-0 -3.838,-1.72 -3.838,-3.838c0,-2.118 1.72,-3.838 3.838,-3.838Z" style="fill:#080818;"/><g><g id="g12837"><path id="circle895" d="M4,0.125l-0.386,1.832c-0.027,0.005 -0.054,0.011 -0.081,0.017c-0.016,-0.528 -0.976,-0.777 -1.017,-1.554c-0.32,0.682 0.558,1.254 0.369,1.82c-0.02,0.014 -0.04,0.028 -0.059,0.042l-1.568,-1.022l1.023,1.567c-0.016,0.022 -0.032,0.045 -0.047,0.068c-0.386,-0.358 -1.239,0.141 -1.817,-0.378c0.258,0.711 1.29,0.491 1.552,1.033c-0.005,0.021 -0.009,0.043 -0.014,0.065l-1.833,0.385l1.833,0.385c0.006,0.028 0.011,0.055 0.018,0.082c-0.529,0.015 -0.778,0.975 -1.556,1.016c0.683,0.32 1.256,-0.558 1.822,-0.369c0.014,0.02 0.027,0.04 0.042,0.059l-1.023,1.567l1.568,-1.022c0.023,0.016 0.045,0.032 0.069,0.047c-0.359,0.385 0.141,1.238 -0.379,1.815c0.711,-0.257 0.491,-1.289 1.034,-1.551c0.021,0.005 0.043,0.01 0.064,0.014l0.386,1.832l0.386,-1.832c0.027,-0.005 0.054,-0.011 0.081,-0.017c0.015,0.528 0.976,0.777 1.017,1.554c0.32,-0.682 -0.558,-1.254 -0.369,-1.82c0.02,-0.014 0.04,-0.028 0.059,-0.042l1.568,1.022l-1.023,-1.567c0.016,-0.022 0.032,-0.045 0.047,-0.069c0.386,0.359 1.239,-0.14 1.817,0.379c-0.258,-0.711 -1.29,-0.491 -1.552,-1.033c0.005,-0.021 0.009,-0.043 0.014,-0.065l1.833,-0.385l-1.829,-0.385c-0.005,-0.027 -0.011,-0.055 -0.017,-0.082c0.525,-0.021 0.775,-0.975 1.551,-1.016c-0.682,-0.319 -1.255,0.557 -1.821,0.369c-0.014,-0.021 -0.027,-0.042 -0.041,-0.062l1.021,-1.564l-1.565,1.02c-0.023,-0.016 -0.047,-0.031 -0.071,-0.046c0.357,-0.386 -0.141,-1.237 0.378,-1.814c-0.708,0.256 -0.493,1.28 -1.027,1.547c-0.024,-0.005 -0.048,-0.01 -0.072,-0.015l-0.385,-1.827Z" style="fill:#edbd58;stroke:#080818;stroke-width:0.14px;"/></g><g><path d="M3.776,4.377c0.053,0.014 0.131,0.067 0.159,0.125c0.03,0.065 -0.071,0.125 -0.159,0.125c-0.088,-0 -0.159,-0.056 -0.159,-0.125c-0,-0.069 0.075,-0.147 0.159,-0.125Z" style="fill:#080818;"/><path d="M3.776,4.377c0.053,0.014 0.131,0.067 0.159,0.125c0.03,0.065 -0.071,0.125 -0.159,0.125c-0.088,-0 -0.159,-0.056 -0.159,-0.125c-0,-0.069 0.075,-0.147 0.159,-0.125Z" style="fill-opacity:0;"/><path d="M4.224,4.377c-0.053,0.014 -0.131,0.067 -0.159,0.125c-0.03,0.065 0.071,0.125 0.159,0.125c0.088,-0 0.159,-0.056 0.159,-0.125c0,-0.069 -0.075,-0.147 -0.159,-0.125Z" style="fill:#080818;"/><path d="M4.224,4.377c-0.053,0.014 -0.131,0.067 -0.159,0.125c-0.03,0.065 0.071,0.125 0.159,0.125c0.088,-0 0.159,-0.056 0.159,-0.125c0,-0.069 -0.075,-0.147 -0.159,-0.125Z" style="fill-opacity:0;"/></g><path d="M3.601,5.035c0.018,-0.088 0.078,-0.192 0.243,-0.221c0.031,-0.006 0.14,0.053 0.173,0.053c0.033,-0 0.117,-0.059 0.148,-0.053c0.166,0.03 0.232,0.132 0.254,0.221c0.083,0.022 0.21,-0.024 0.21,0.026c-0,0.114 -0.317,0.352 -0.612,0.352c-0.295,-0 -0.646,-0.238 -0.646,-0.352c0,-0.052 0.133,-0.004 0.23,-0.026Z" style="fill:#080818;"/><path d="M3.601,5.035c0.018,-0.088 0.078,-0.192 0.243,-0.221c0.031,-0.006 0.14,0.053 0.173,0.053c0.033,-0 0.117,-0.059 0.148,-0.053c0.166,0.03 0.232,0.132 0.254,0.221c0.083,0.022 0.21,-0.024 0.21,0.026c-0,0.114 -0.317,0.352 -0.612,0.352c-0.295,-0 -0.646,-0.238 -0.646,-0.352c0,-0.052 0.133,-0.004 0.23,-0.026Zm0.244,-0.055c0.023,0.009 0.063,0.024 0.084,0.032c0.036,0.012 0.068,0.017 0.088,0.017c0.024,0 0.057,-0.005 0.093,-0.02c0.015,-0.007 0.04,-0.018 0.058,-0.027c0.057,0.019 0.084,0.056 0.093,0.092l0.075,0.076c-0.09,0.055 -0.206,0.1 -0.319,0.1c-0.114,0 -0.238,-0.045 -0.336,-0.101l0.079,-0.081c0.007,-0.034 0.031,-0.07 0.085,-0.088Z" style="fill-opacity:0;"/><g><path d="M3.07,3.714c-0.277,-0.059 -0.57,-0.158 -0.57,-0.158c-0,-0 0.534,-0.168 0.83,-0.168c0.105,-0 0.422,0.2 0.49,0.277c0.051,0.056 -0.089,0.078 -0.227,0.086c-0.001,0.137 -0.118,0.249 -0.263,0.249c-0.145,0 -0.263,-0.112 -0.263,-0.25c-0,-0.012 0.001,-0.025 0.003,-0.036Z" style="fill:#080818;"/><path d="M3.07,3.714c-0.277,-0.059 -0.57,-0.158 -0.57,-0.158c-0,-0 0.534,-0.168 0.83,-0.168c0.105,-0 0.422,0.2 0.49,0.277c0.051,0.056 -0.089,0.078 -0.227,0.086c-0.001,0.137 -0.118,0.249 -0.263,0.249c-0.145,0 -0.263,-0.112 -0.263,-0.25c-0,-0.012 0.001,-0.025 0.003,-0.036Zm0.254,-0.164c-0.062,0 -0.134,0.009 -0.21,0.021l0.116,0.167c-0.001,0.004 -0.001,0.008 -0.001,0.012c0,0.051 0.047,0.088 0.101,0.088c0.053,-0 0.1,-0.037 0.101,-0.088l0.095,-0.101c-0.024,-0.015 -0.05,-0.03 -0.075,-0.043c-0.047,-0.026 -0.117,-0.052 -0.127,-0.056Z" style="fill-opacity:0;"/><path d="M4.93,3.714c0.277,-0.059 0.57,-0.158 0.57,-0.158c-0,-0 -0.534,-0.168 -0.83,-0.168c-0.105,-0 -0.422,0.2 -0.49,0.277c-0.051,0.056 0.089,0.078 0.227,0.086c0.001,0.137 0.118,0.249 0.263,0.249c0.145,0 0.263,-0.112 0.263,-0.25c0,-0.012 -0.001,-0.025 -0.003,-0.036Z" style="fill:#080818;"/><path d="M4.93,3.714c0.277,-0.059 0.57,-0.158 0.57,-0.158c-0,-0 -0.534,-0.168 -0.83,-0.168c-0.105,-0 -0.422,0.2 -0.49,0.277c-0.051,0.056 0.089,0.078 0.227,0.086c0.001,0.137 0.118,0.249 0.263,0.249c0.145,0 0.263,-0.112 0.263,-0.25c0,-0.012 -0.001,-0.025 -0.003,-0.036Zm-0.254,-0.164c-0.01,0.004 -0.08,0.03 -0.127,0.056c-0.025,0.013 -0.051,0.028 -0.075,0.043l0.095,0.101c0.001,0.051 0.048,0.088 0.101,0.088c0.054,-0 0.101,-0.037 0.101,-0.088c-0,-0.004 -0,-0.008 -0.001,-0.012l0.116,-0.167c-0.076,-0.013 -0.148,-0.021 -0.21,-0.021Z" style="fill-opacity:0;"/></g></g></g></svg>